<?xml version="1.0" encoding="UTF-8"?><svg xmlns="http://www.w3.org/2000/svg" xmlns:xlink="http://www.w3.org/1999/xlink" viewBox="0 0 724.22 289.2"><defs><style>.cls-1{fill:url(#linear-gradient);}.cls-2{fill:#3e4f68;}.cls-3{fill:url(#linear-gradient-9);}.cls-3,.cls-4,.cls-5,.cls-6,.cls-7,.cls-8,.cls-9,.cls-10{mix-blend-mode:overlay;}.cls-4{fill:url(#linear-gradient-8);}.cls-11{fill:url(#linear-gradient-3);}.cls-12{fill:url(#linear-gradient-4);}.cls-13{fill:url(#linear-gradient-2);}.cls-14{fill:url(#linear-gradient-6);}.cls-15{fill:url(#linear-gradient-7);}.cls-16{fill:url(#linear-gradient-5);}.cls-17{fill:url(#linear-gradient-16);}.cls-18{isolation:isolate;}.cls-5{fill:url(#linear-gradient-14);}.cls-6{fill:url(#linear-gradient-10);}.cls-7{fill:url(#linear-gradient-11);}.cls-8{fill:url(#linear-gradient-12);}.cls-9{fill:url(#linear-gradient-13);}.cls-10{fill:url(#linear-gradient-15);}</style><linearGradient id="linear-gradient" x1="156.24" y1="264.66" x2="156.24" y2="6.79" gradientTransform="matrix(1, 0, 0, 1, 0, 0)" gradientUnits="userSpaceOnUse"><stop offset=".04" stop-color="#075773"/><stop offset="1" stop-color="#7bfafc"/></linearGradient><linearGradient id="linear-gradient-2" x1="141.8" y1="252.09" x2="253.66" y2="127.84" gradientTransform="matrix(1, 0, 0, 1, 0, 0)" gradientUnits="userSpaceOnUse"><stop offset="0" stop-color="#3e4f68"/><stop offset="1" stop-color="#131821"/></linearGradient><linearGradient id="linear-gradient-3" x1="165.24" y1="302.93" x2="285.42" y2="182.17" gradientTransform="matrix(1, 0, 0, 1, 0, 0)" gradientUnits="userSpaceOnUse"><stop offset="0" stop-color="#0c0f14"/><stop offset="1" stop-color="#3e4f68"/></linearGradient><linearGradient id="linear-gradient-4" x1="273.6" y1="160.84" x2="265.09" y2="65.23" xlink:href="#linear-gradient-2"/><linearGradient id="linear-gradient-5" x1="1780.59" y1="252.09" x2="1892.45" y2="127.84" gradientTransform="translate(1944.36) rotate(-180) scale(1 -1)" xlink:href="#linear-gradient-2"/><linearGradient id="linear-gradient-6" x1="1804.02" y1="302.93" x2="1924.2" y2="182.17" gradientTransform="translate(1944.36) rotate(-180) scale(1 -1)" xlink:href="#linear-gradient-3"/><linearGradient id="linear-gradient-7" x1="1912.39" y1="160.84" x2="1903.87" y2="65.23" gradientTransform="translate(1944.36) rotate(-180) scale(1 -1)" xlink:href="#linear-gradient-2"/><linearGradient id="linear-gradient-8" x1="139.94" y1="136.7" x2="139.34" y2=".15" gradientTransform="matrix(1, 0, 0, 1, 0, 0)" gradientUnits="userSpaceOnUse"><stop offset="0" stop-color="#000"/><stop offset="1" stop-color="#fff"/></linearGradient><linearGradient id="linear-gradient-9" x1="117.53" y1="236.56" x2="167.04" y2="149.73" gradientTransform="matrix(1, 0, 0, 1, 0, 0)" gradientUnits="userSpaceOnUse"><stop offset="0" stop-color="#000"/><stop offset="1" stop-color="#fff"/></linearGradient><linearGradient id="linear-gradient-10" x1="148.33" y1="8.13" x2="210.14" y2="290.18" xlink:href="#linear-gradient-9"/><linearGradient id="linear-gradient-11" x1="156.82" y1="258.96" x2="203.59" y2="176.94" gradientTransform="matrix(1, 0, 0, 1, 0, 0)" gradientUnits="userSpaceOnUse"><stop offset="0" stop-color="#fff"/><stop offset="1" stop-color="#000"/></linearGradient><linearGradient id="linear-gradient-12" x1="138.58" y1="173.2" x2="171.97" y2="206.29" gradientTransform="matrix(1, 0, 0, 1, 0, 0)" gradientUnits="userSpaceOnUse"><stop offset="0" stop-color="#fff"/><stop offset="1" stop-color="#fff" stop-opacity="0"/></linearGradient><linearGradient id="linear-gradient-13" x1="151.37" y1="171.29" x2="125.63" y2="227.03" gradientTransform="matrix(1, 0, 0, 1, 0, 0)" gradientUnits="userSpaceOnUse"><stop offset="0" stop-color="#000"/><stop offset="1" stop-color="#000" stop-opacity="0"/></linearGradient><linearGradient id="linear-gradient-14" x1="156.26" y1="124.54" x2="122.15" y2="198.4" xlink:href="#linear-gradient-12"/><linearGradient id="linear-gradient-15" x1="183.47" y1="133.37" x2="165.33" y2="172.66" xlink:href="#linear-gradient-13"/><linearGradient id="linear-gradient-16" x1="342.64" y1="168.92" x2="724.22" y2="168.92" gradientTransform="matrix(1, 0, 0, 1, 0, 0)" gradientUnits="userSpaceOnUse"><stop offset="0" stop-color="#46d9f2"/><stop offset="1" stop-color="#043542"/></linearGradient></defs><g class="cls-18"><g id="Layer_2"><g id="NITRO"><g><g id="NITRO-2"><polygon class="cls-1" points="152.79 256.66 215.54 183.75 152.69 95.22 172.74 0 106.44 113.32 127.72 136.75 96.95 191.79 152.79 256.66"/><g><polygon class="cls-2" points="152.79 289.2 266.39 157.22 257.97 59.68 305.57 161.36 251 242.98 152.79 289.2"/><polyline class="cls-13" points="266.39 157.22 152.79 289.2 280.54 161.36 257.97 59.68 266.39 157.22"/><polygon class="cls-11" points="280.54 161.36 286.78 189.47 251 242.98 152.79 289.2 280.54 161.36"/><polygon class="cls-12" points="280.54 161.36 266.39 157.22 257.97 59.68 280.54 161.36"/></g><g><polygon class="cls-2" points="152.79 289.2 39.18 157.22 47.6 59.68 0 161.36 54.57 242.98 152.79 289.2"/><polyline class="cls-16" points="39.18 157.22 152.79 289.2 25.03 161.36 47.6 59.68 39.18 157.22"/><polygon class="cls-14" points="25.03 161.36 18.79 189.47 54.57 242.98 152.79 289.2 25.03 161.36"/><polygon class="cls-15" points="25.03 161.36 39.18 157.22 47.6 59.68 25.03 161.36"/></g><path class="cls-4" d="M122.18,114.28c8.18,9.06,18.51,20.42,18.51,20.42l-12.97,2.05-21.29-23.43,5.9-10.08L172.74,0l-50.55,114.28h0Z"/><polygon class="cls-3" points="152.79 238.26 152.79 256.66 104.62 200.7 96.95 191.79 127.72 136.75 140.69 134.7 109.91 191.02 152.79 238.26"/><polygon class="cls-6" points="200.65 183.75 138.95 96.39 172.74 0 152.69 95.22 215.54 183.75 200.65 183.75"/><polygon class="cls-7" points="200.65 183.75 215.54 183.75 152.79 256.66 152.79 238.26 200.65 183.75"/><polygon class="cls-8" points="152.79 238.26 152.79 165.94 200.65 183.75 152.79 238.26"/><polygon class="cls-9" points="152.79 165.94 109.91 191.02 152.79 238.26 152.79 165.94"/><polygon class="cls-5" points="152.79 165.94 151.74 114.49 109.91 191.02 152.79 165.94"/><polygon class="cls-10" points="151.74 114.49 200.65 183.75 152.79 165.94 151.74 114.49"/></g><path id="NITRO-3" class="cls-17" d="M407.48,193.23h16.21V112.18h-16.21v56.74l-48.63-56.74h-16.21v81.05h16.21v-56.74l48.63,56.74Zm50.4-81.05h-16.21v81.05h16.21V112.18Zm90.04,16.21v-16.21h-81.05v16.21h32.42v97.26h16.21v-97.26h32.42Zm25.2,0h40.52c2.28,0,4.2,.78,5.76,2.34,1.56,1.56,2.34,3.48,2.34,5.76s-.78,4.2-2.34,5.76-3.48,2.34-5.76,2.34h-28.37l44.58,81.05h16.21l-35.97-64.84h3.55c6.75,0,12.49-2.36,17.22-7.09,4.73-4.73,7.09-10.47,7.09-17.22s-2.37-12.49-7.09-17.22c-4.73-4.73-10.47-7.09-17.22-7.09h-56.74v81.05h16.21v-64.84Zm139.24-4.36c-7.9-7.9-17.45-11.84-28.69-11.84s-20.79,3.95-28.69,11.84c-7.89,7.89-11.84,17.45-11.84,28.68s3.95,20.79,11.84,28.69c7.9,7.9,17.46,11.84,28.69,11.84s20.79-3.95,28.69-11.84c7.9-7.9,11.84-17.46,11.84-28.69s-3.95-20.79-11.84-28.68Zm-11.46,45.9c-4.73,4.73-10.48,7.09-17.23,7.09s-12.49-2.36-17.21-7.09c-4.73-4.73-7.09-10.47-7.09-17.22s2.36-12.5,7.09-17.22c4.73-4.73,10.46-7.1,17.21-7.1s12.5,2.37,17.23,7.1c4.72,4.72,7.09,10.47,7.09,17.22s-2.37,12.49-7.09,17.22Z"/></g></g></g></g></svg>