<?xml version="1.0" encoding="UTF-8"?><svg xmlns="http://www.w3.org/2000/svg" xmlns:xlink="http://www.w3.org/1999/xlink" viewBox="0 0 853.92 808.17"><defs><style>.cls-1{fill:url(#linear-gradient);}.cls-2{fill:#3e4f68;}.cls-3{fill:url(#linear-gradient-9);}.cls-3,.cls-4,.cls-5,.cls-6,.cls-7,.cls-8,.cls-9,.cls-10{mix-blend-mode:overlay;}.cls-4{fill:url(#linear-gradient-8);}.cls-11{fill:url(#linear-gradient-3);}.cls-12{fill:url(#linear-gradient-4);}.cls-13{fill:url(#linear-gradient-2);}.cls-14{fill:url(#linear-gradient-6);}.cls-15{fill:url(#linear-gradient-7);}.cls-16{fill:url(#linear-gradient-5);}.cls-17{isolation:isolate;}.cls-5{fill:url(#linear-gradient-14);}.cls-6{fill:url(#linear-gradient-10);}.cls-7{fill:url(#linear-gradient-11);}.cls-8{fill:url(#linear-gradient-12);}.cls-9{fill:url(#linear-gradient-13);}.cls-10{fill:url(#linear-gradient-15);}</style><linearGradient id="linear-gradient" x1="436.62" y1="739.58" x2="436.62" y2="18.98" gradientTransform="matrix(1, 0, 0, 1, 0, 0)" gradientUnits="userSpaceOnUse"><stop offset=".04" stop-color="#075773"/><stop offset="1" stop-color="#7bfafc"/></linearGradient><linearGradient id="linear-gradient-2" x1="396.27" y1="704.45" x2="708.86" y2="357.24" gradientTransform="matrix(1, 0, 0, 1, 0, 0)" gradientUnits="userSpaceOnUse"><stop offset="0" stop-color="#3e4f68"/><stop offset="1" stop-color="#131821"/></linearGradient><linearGradient id="linear-gradient-3" x1="461.75" y1="846.53" x2="797.59" y2="509.06" gradientTransform="matrix(1, 0, 0, 1, 0, 0)" gradientUnits="userSpaceOnUse"><stop offset="0" stop-color="#0c0f14"/><stop offset="1" stop-color="#3e4f68"/></linearGradient><linearGradient id="linear-gradient-4" x1="764.58" y1="449.45" x2="740.78" y2="182.29" xlink:href="#linear-gradient-2"/><linearGradient id="linear-gradient-5" x1="4737.56" y1="704.45" x2="5050.15" y2="357.24" gradientTransform="translate(5195.21) rotate(-180) scale(1 -1)" xlink:href="#linear-gradient-2"/><linearGradient id="linear-gradient-6" x1="4803.04" x2="5138.89" y2="509.06" gradientTransform="translate(5195.21) rotate(-180) scale(1 -1)" xlink:href="#linear-gradient-3"/><linearGradient id="linear-gradient-7" x1="5105.87" y1="449.45" x2="5082.08" y2="182.29" gradientTransform="translate(5195.21) rotate(-180) scale(1 -1)" xlink:href="#linear-gradient-2"/><linearGradient id="linear-gradient-8" x1="391.05" y1="382" x2="389.38" y2=".41" gradientTransform="matrix(1, 0, 0, 1, 0, 0)" gradientUnits="userSpaceOnUse"><stop offset="0" stop-color="#000"/><stop offset="1" stop-color="#fff"/></linearGradient><linearGradient id="linear-gradient-9" x1="328.44" y1="661.05" x2="466.79" y2="418.41" gradientTransform="matrix(1, 0, 0, 1, 0, 0)" gradientUnits="userSpaceOnUse"><stop offset="0" stop-color="#000"/><stop offset="1" stop-color="#fff"/></linearGradient><linearGradient id="linear-gradient-10" x1="414.5" y1="22.72" x2="587.23" y2="810.89" xlink:href="#linear-gradient-9"/><linearGradient id="linear-gradient-11" x1="438.23" y1="723.65" x2="568.92" y2="494.45" gradientTransform="matrix(1, 0, 0, 1, 0, 0)" gradientUnits="userSpaceOnUse"><stop offset="0" stop-color="#fff"/><stop offset="1" stop-color="#000"/></linearGradient><linearGradient id="linear-gradient-12" x1="387.26" y1="484" x2="480.55" y2="576.48" gradientTransform="matrix(1, 0, 0, 1, 0, 0)" gradientUnits="userSpaceOnUse"><stop offset="0" stop-color="#fff"/><stop offset="1" stop-color="#fff" stop-opacity="0"/></linearGradient><linearGradient id="linear-gradient-13" x1="423" y1="478.67" x2="351.07" y2="634.42" gradientTransform="matrix(1, 0, 0, 1, 0, 0)" gradientUnits="userSpaceOnUse"><stop offset="0" stop-color="#000"/><stop offset="1" stop-color="#000" stop-opacity="0"/></linearGradient><linearGradient id="linear-gradient-14" x1="436.67" y1="348.01" x2="341.34" y2="554.44" xlink:href="#linear-gradient-12"/><linearGradient id="linear-gradient-15" x1="512.69" y1="372.71" x2="462" y2="482.48" xlink:href="#linear-gradient-13"/></defs><g class="cls-17"><g id="Layer_2"><g id="NITRO"><g id="NITRO-2"><polygon class="cls-1" points="426.96 717.23 602.32 513.49 426.68 266.1 482.71 0 297.43 316.67 356.92 382.15 270.92 535.94 426.96 717.23"/><g><polygon class="cls-2" points="426.96 808.17 744.42 439.34 720.89 166.77 853.92 450.92 701.42 679.01 426.96 808.17"/><polyline class="cls-13" points="744.42 439.34 426.96 808.17 783.97 450.92 720.89 166.77 744.42 439.34"/><polygon class="cls-11" points="783.97 450.92 801.41 529.46 701.42 679.01 426.96 808.17 783.97 450.92"/><polygon class="cls-12" points="783.97 450.92 744.42 439.34 720.89 166.77 783.97 450.92"/></g><g><polygon class="cls-2" points="426.96 808.17 109.5 439.34 133.03 166.77 0 450.92 152.49 679.01 426.96 808.17"/><polyline class="cls-16" points="109.5 439.34 426.96 808.17 69.95 450.92 133.03 166.77 109.5 439.34"/><polygon class="cls-14" points="69.95 450.92 52.51 529.46 152.49 679.01 426.96 808.17 69.95 450.92"/><polygon class="cls-15" points="69.95 450.92 109.5 439.34 133.03 166.77 69.95 450.92"/></g><path class="cls-4" d="M341.44,319.35c22.86,25.31,51.72,57.08,51.72,57.08l-36.23,5.72-59.49-65.48,16.48-28.18L482.71,0l-141.27,319.34h0Z"/><polygon class="cls-3" points="426.96 665.8 426.96 717.23 292.37 560.86 270.92 535.94 356.92 382.15 393.16 376.43 307.15 533.8 426.96 665.8"/><polygon class="cls-6" points="560.71 513.49 388.29 269.35 482.71 0 426.68 266.1 602.32 513.49 560.71 513.49"/><polygon class="cls-7" points="560.71 513.49 602.32 513.49 426.96 717.23 426.96 665.81 560.71 513.49"/><polygon class="cls-8" points="426.96 665.81 426.96 463.72 560.71 513.49 426.96 665.81"/><polygon class="cls-9" points="426.96 463.72 307.15 533.8 426.96 665.81 426.96 463.72"/><polygon class="cls-5" points="426.96 463.72 424.02 319.95 307.15 533.8 426.96 463.72"/><polygon class="cls-10" points="424.02 319.95 560.71 513.49 426.96 463.72 424.02 319.95"/></g></g></g></g></svg>